<svg width="606" height="531" fill="none" xmlns="http://www.w3.org/2000/svg"><path fill-rule="evenodd" clip-rule="evenodd" d="M278.315 321.07h-94.591l-.011-.041-4.106-14.428c2.615-5.022 14.181-25.726 26.2-24.636 11.319 1.03-4.24 17.155 1.029 21.61 5.269 4.467 20.581-36.017 43.221-33.959 18.676 1.698-11.608 45.588 2.058 37.047 8.232-5.146 14.571-8.665 18.523-5.146 3.828 3.407-1.76 10.291 4.508 8.439l3.158 11.092.011.022zm153.308-129.605a4.083 4.083 0 0 0-6.15-2.541c-15.44 9.403-33.57 14.829-52.955 14.829-56.227 0-101.877-45.648-101.877-101.876S316.291 0 372.518 0s101.876 45.649 101.876 101.877c0 4.778-.329 9.478-.967 14.082a9.297 9.297 0 0 0 2.189 7.387 9.297 9.297 0 0 0 7.011 3.195v.034c28.966 0 52.482 23.515 52.482 52.482 0 28.966-23.516 52.481-52.482 52.481-24.692 0-45.421-17.087-51.004-40.073zM44.25 420.885c24.421 0 44.25 19.828 44.25 44.249 0 24.422-19.829 44.25-44.25 44.25-24.422 0-44.25-19.828-44.25-44.25 0-24.421 19.828-44.249 44.25-44.249zm65.855 64.833c12.495 0 22.64 10.144 22.64 22.638 0 12.495-10.145 22.64-22.64 22.64-12.495 0-22.64-10.145-22.64-22.64 0-12.494 10.145-22.638 22.64-22.638zm428.09-392.067c12.495 0 22.639 10.145 22.639 22.639 0 12.495-10.144 22.64-22.639 22.64s-22.64-10.145-22.64-22.64c0-12.494 10.145-22.639 22.64-22.639z" fill="#FF8402"/><path fill-rule="evenodd" clip-rule="evenodd" d="M79.235 264.473L94.238 317.5l-15.107-52.883.104-.144zm16.479 53.184c-.34.453-.69.906-1.05 1.338l-.02-.092-.402-1.4 1.38.144.092.01z" fill="#F1F6FA"/><path fill-rule="evenodd" clip-rule="evenodd" d="M158.322 222.272h84.534l-50.661-14.747 20.015-45.35-53.264-17.823-20.93 47.398-28.597-8.325c-16.99-4.949-35.122 2.686-43.469 18.297-6.946 12.997-25.212 46.668-39.001 72.055-9.672 17.823-4.56 40.06 11.916 51.894.32.228.628.454.947.681a40.265 40.265 0 0 0 26.56 7.429l-4.63 24.327-4.117 48.366h31.623l4.358-10.525 62.809-12.115h-43.221l-18.523-64.83-.01-.022a.433.433 0 0 0 .086-.228c.299-.369.587-.743.87-1.119l-1.377-.144-15.005-53.028-.103.145-9.158-32.045 7.203-10.291h34.106l8.241 28.844a5.635 5.635 0 0 0 5.418 4.086h.042c1.767 0 3.432-.83 4.498-2.241 1.064-1.412.918-4.941.918-4.941l.886 3.096a5.634 5.634 0 0 0 5.416 4.086h.041a5.634 5.634 0 0 0 5.477-6.963l.821 2.877a5.634 5.634 0 0 0 5.416 4.086h.042a5.634 5.634 0 0 0 5.419-7.182l.883 3.096a5.636 5.636 0 0 0 5.419 4.086h.042a5.632 5.632 0 0 0 5.415-7.182c-1.99-6.966-5.04-17.639-7.355-25.748zm44.405 105.99a5.148 5.148 0 0 1 4.116-2.046c2.839 0 5.145 2.29 5.145 5.112 0 6.208-7.203 10.324-7.203 10.324s-10.291-2.058-11.321-10.324c-.348-2.8 2.306-5.112 5.146-5.112 1.683 0 3.177.804 4.117 2.046zm103.36-75.287a5.623 5.623 0 0 1 4.96 4.611v.002a5.669 5.669 0 0 1-5.935 6.65l3.029.313a5.62 5.62 0 0 1 4.959 4.61l.001.002a5.67 5.67 0 0 1-6.164 6.631l3.257.336a5.623 5.623 0 0 1 4.963 4.612 5.676 5.676 0 0 1-1.43 4.852 5.676 5.676 0 0 1-4.736 1.78c-7.406-.762-22.407-1.906-28.409-2.524a5.627 5.627 0 0 1-4.976-4.661 5.633 5.633 0 0 1 6.125-6.589l-3.203-.33a5.63 5.63 0 0 1-4.97-4.62l-.007-.041a5.63 5.63 0 0 1 1.421-4.82 5.628 5.628 0 0 1 4.475-1.787l-2.973-.307a5.63 5.63 0 0 1-4.97-4.62l-.007-.041a5.627 5.627 0 0 1 1.421-4.819 5.632 5.632 0 0 1 4.704-1.77l-3.203-.33a5.63 5.63 0 0 1-4.97-4.619l-.007-.042a5.633 5.633 0 0 1 6.126-6.589c7.411.765 22.452 1.911 28.464 2.531a5.621 5.621 0 0 1 4.96 4.611v.001a5.674 5.674 0 0 1-1.428 4.852 5.672 5.672 0 0 1-4.736 1.779l3.259.336z" fill="#FF8402"/><path fill-rule="evenodd" clip-rule="evenodd" d="M298.044 447.862l3.517 3.482 8.89 4.162 10.021 4.469 12.7 2.015-16.956 56.936 3.272 7.396 6.507 3.525 3.343.017 41.685-145.252-38.536 10.985-13.519 7.923-7.12 9.719-13.804 34.623z" fill="#294AF6"/><path fill-rule="evenodd" clip-rule="evenodd" d="M324.32 528.945h5.289l-.267.926-3.344-.02-1.678-.906z" fill="#294AF6"/><path fill-rule="evenodd" clip-rule="evenodd" d="M313.007 309.476c-.566-1.308-.987-2.686-1.173-4.106l1.173 4.106z" fill="#F1F6FA"/><path fill-rule="evenodd" clip-rule="evenodd" d="M270.646 301.51c3.828 3.406-1.76 10.291 4.507 8.438l3.159 11.092.01.022h-94.59l-.011-.042-4.106-14.426c2.614-5.022 14.181-25.727 26.2-24.636 11.32 1.029-4.24 17.154 1.03 21.61 5.268 4.466 20.581-36.017 43.22-33.959 18.676 1.698-11.608 45.587 2.058 37.047 8.232-5.146 14.571-8.665 18.523-5.146zm14.407 43.221h-94.591l-6.145-21.611h94.592l6.144 21.611zm-22.64-84.383h-96.731c-.32 0-.627.154-.823.411a1 1 0 0 0-.164.896l16.989 59.716.278.998v.01l6.74 23.658c.124.443.526.752.988.752h96.731c.319 0 .627-.155.824-.412.195-.257.257-.587.165-.897l-6.731-23.656v-.012l-.226-.792-17.051-59.922a1.025 1.025 0 0 0-.989-.75z" fill="#000"/><path fill-rule="evenodd" clip-rule="evenodd" d="M272.815 328.274l.584 2.058H221.14l-.584-2.058h52.259zm-53.442 3.369c.126.441.53.747.991.747h54.399c.322 0 .627-.151.819-.409.196-.256.258-.59.169-.9l-1.169-4.117a1.031 1.031 0 0 0-.991-.748h-54.398a1.026 1.026 0 0 0-.989 1.31l1.169 4.117zm3.822 6.921l-.585-2.059h30.649l.583 2.059h-30.647zm31.83-3.368a1.03 1.03 0 0 0-.99-.749h-32.788a1.03 1.03 0 0 0-.99 1.31l1.17 4.116c.126.443.53.749.99.749h32.788a1.028 1.028 0 0 0 .99-1.31l-1.17-4.116zm-59.714-6.484a4.457 4.457 0 0 1 3.301-1.474c1.308 0 2.509.597 3.295 1.638.39.515 1.253.515 1.642 0a4.099 4.099 0 0 1 3.296-1.638c2.27 0 4.116 1.832 4.116 4.083 0 4.804-4.999 8.352-6.352 9.225-1.79-.463-9.305-2.788-10.121-9.353-.14-1.121.371-1.969.823-2.481zm9.274 13.943a1.03 1.03 0 0 0 .712-.115c.315-.18 7.722-4.491 7.722-11.219 0-3.386-2.769-6.141-6.174-6.141a6.137 6.137 0 0 0-4.116 1.562 6.143 6.143 0 0 0-4.117-1.562c-1.832 0-3.643.811-4.843 2.17-1.037 1.173-1.506 2.628-1.323 4.097 1.107 8.902 11.688 11.119 12.139 11.208zM121.441 265.5l-.584-2.058h30.648l.584 2.058h-30.648zm32.832 1.649c.196-.257.258-.592.169-.901l-1.171-4.117a1.026 1.026 0 0 0-.989-.747h-32.789a1.028 1.028 0 0 0-.989 1.309l1.17 4.117c.126.442.53.747.99.747h32.788c.323 0 .628-.15.821-.408zm-27.541 16.866l-.585-2.058h30.649l.583 2.058h-30.647zm32.831 1.65a1.02 1.02 0 0 0 .169-.901l-1.17-4.117a1.03 1.03 0 0 0-.99-.748h-32.789a1.027 1.027 0 0 0-.989 1.311l1.171 4.116c.126.442.53.747.991.747h32.787c.322 0 .627-.151.82-.408zm-30.213 7.618l-.586-2.059h24.474l.584 2.059H129.35zm26.656 1.649c.196-.257.257-.592.169-.901l-1.17-4.116a1.03 1.03 0 0 0-.99-.749h-26.614a1.03 1.03 0 0 0-.989 1.31l1.17 4.116c.126.443.53.749.991.749h26.612c.324 0 .627-.152.821-.409zm-31.938-20.166l-.584-2.058h20.358l.584 2.058h-20.358zm22.541 1.65a1.02 1.02 0 0 0 .169-.901l-1.168-4.116a1.031 1.031 0 0 0-.991-.749H122.12a1.027 1.027 0 0 0-.989 1.311l1.17 4.116c.126.442.53.748.99.748h22.498c.322 0 .627-.152.82-.409zm-11.914 35.382l-.585-2.058h30.649l.584 2.058h-30.648zm31.83-3.368a1.03 1.03 0 0 0-.99-.748h-32.788a1.026 1.026 0 0 0-.99 1.31l1.171 4.116c.125.443.529.749.989.749h32.788c.324 0 .629-.152.821-.409.196-.258.257-.592.169-.902l-1.17-4.116zm-29.203 12.635l-.586-2.057h20.358l.585 2.057h-20.357zm21.539-3.368a1.029 1.029 0 0 0-.99-.747h-22.498a1.027 1.027 0 0 0-.99 1.309l1.172 4.117c.126.442.529.747.989.747h22.497c.323 0 .628-.15.821-.408.196-.257.258-.592.169-.902l-1.17-4.116zm-26.876-15.147l-.585-2.058h20.358l.585 2.058h-20.358zm22.541 1.649c.195-.257.257-.592.168-.902l-1.169-4.116a1.03 1.03 0 0 0-.99-.747h-22.498a1.03 1.03 0 0 0-.99 1.309l1.171 4.117c.126.442.529.748.989.748h22.498c.323 0 .628-.151.821-.409zm-7.534-123.505c1.361.6 2.92.052 3.481-1.223.563-1.276-.085-2.795-1.447-3.395-1.361-.6-2.921-.052-3.482 1.223-.561 1.275.085 2.794 1.448 3.395zm-2.89 6.571c1.115.492 2.388.044 2.848-1 .46-1.042-.072-2.286-1.185-2.778-1.113-.489-2.387-.042-2.847 1.003-.461 1.041.072 2.285 1.184 2.775zm-1.581 3.579c-.849-.375-1.825-.032-2.175.764l-.075.365 3.161.97c.339-.791-.068-1.728-.911-2.099zm20.674-26.786c1.932.851 4.144.074 4.941-1.736.799-1.811-.121-3.968-2.053-4.82-1.933-.849-4.144-.073-4.944 1.736-.796 1.812.123 3.968 2.056 4.82zm-2.941 6.688c1.761.776 3.777.066 4.502-1.583.727-1.649-.11-3.615-1.869-4.39-1.761-.776-3.776-.066-4.503 1.583-.727 1.649.109 3.614 1.87 4.39zm-2.916 6.625c1.579.697 3.388.06 4.041-1.419.652-1.48-.101-3.244-1.68-3.939-1.579-.698-3.389-.061-4.041 1.419-.651 1.479.101 3.243 1.68 3.939zm-2.91 6.614c1.36.599 2.92.052 3.482-1.224.562-1.277-.085-2.795-1.447-3.395-1.363-.6-2.92-.051-3.482 1.224-.562 1.275.085 2.796 1.447 3.395zm-2.891 6.554c1.114.491 2.389.044 2.85-1.001.458-1.042-.072-2.286-1.185-2.776-1.113-.491-2.388-.042-2.849 1.001-.459 1.042.07 2.285 1.184 2.776zm-1.578 3.593c-.642-.284-1.354-.158-1.815.266l2.763.846c-.103-.476-.449-.893-.948-1.112zm20.679-26.782c1.933.852 4.144.073 4.943-1.737.797-1.811-.122-3.968-2.054-4.819-1.933-.851-4.147-.073-4.943 1.737-.797 1.811.122 3.969 2.054 4.819zm-.322.717c-1.761-.776-3.777-.068-4.504 1.582-.726 1.649.111 3.615 1.872 4.39 1.76.776 3.776.066 4.502-1.582.728-1.65-.111-3.616-1.87-4.39zm-7.223 8.634c-.653 1.478.1 3.243 1.679 3.938 1.579.695 3.388.061 4.04-1.419.651-1.48-.1-3.243-1.679-3.939-1.581-.696-3.388-.061-4.04 1.42zm.804 5.927c-1.361-.6-2.92-.051-3.483 1.223-.562 1.278.087 2.797 1.449 3.397 1.361.599 2.919.05 3.482-1.223.562-1.276-.086-2.798-1.448-3.397zm-3.259 7.393c-1.113-.49-2.387-.042-2.848 1.002-.459 1.043.071 2.288 1.185 2.778 1.113.489 2.387.042 2.847-1.002.46-1.043-.07-2.287-1.184-2.778zm17.435-19.398c1.932.852 4.145.074 4.942-1.736.798-1.811-.121-3.969-2.054-4.819-1.932-.852-4.144-.072-4.941 1.737-.798 1.81.121 3.968 2.053 4.818zm-.312.718c-1.762-.775-3.777-.067-4.503 1.582-.727 1.651.11 3.615 1.872 4.39 1.758.776 3.774.067 4.501-1.581.727-1.652-.11-3.616-1.87-4.391zm-7.233 8.636c-.652 1.477.099 3.241 1.68 3.938 1.578.696 3.387.061 4.038-1.421.653-1.478-.099-3.242-1.678-3.94-1.579-.695-3.389-.059-4.04 1.423zm.806 5.924c-1.361-.6-2.921-.052-3.482 1.222-.562 1.276.085 2.798 1.446 3.397 1.362.599 2.921.051 3.483-1.224.562-1.275-.087-2.796-1.447-3.395zm-3.258 7.414c-1.114-.492-2.39-.043-2.849 1.001-.459 1.042.07 2.287 1.185 2.777 1.114.49 2.388.042 2.846-1.001.461-1.043-.068-2.286-1.182-2.777zm17.435-19.416c1.932.851 4.145.072 4.943-1.737.797-1.811-.123-3.968-2.053-4.819-1.934-.85-4.147-.074-4.944 1.735-.797 1.811.122 3.97 2.054 4.821zm-2.948 6.687c1.76.777 3.776.066 4.503-1.581.727-1.65-.111-3.616-1.872-4.391-1.76-.775-3.776-.067-4.502 1.582-.727 1.65.111 3.615 1.871 4.39zm-4.598 2.663c-.652 1.478.101 3.243 1.681 3.939 1.579.695 3.388.06 4.04-1.42.65-1.48-.099-3.243-1.679-3.938-1.58-.697-3.389-.06-4.042 1.419zm.805 5.927c-1.362-.599-2.921-.051-3.482 1.223-.563 1.278.085 2.797 1.448 3.397 1.362.599 2.919.051 3.482-1.224.562-1.275-.087-2.797-1.448-3.396zm-3.26 7.411c-1.114-.491-2.388-.042-2.85 1.002-.459 1.043.072 2.285 1.185 2.777 1.114.491 2.389.042 2.849-1.002.46-1.043-.071-2.286-1.184-2.777zm17.436-19.416c1.931.852 4.144.073 4.943-1.735.796-1.812-.124-3.97-2.056-4.82-1.932-.852-4.145-.073-4.941 1.737-.797 1.81.121 3.968 2.054 4.818zm-.323.719c-1.758-.775-3.775-.068-4.501 1.582-.728 1.649.111 3.614 1.871 4.391 1.759.774 3.776.066 4.503-1.584.726-1.648-.112-3.614-1.873-4.389zm-3.177 7.228c-1.579-.696-3.388-.062-4.04 1.419-.653 1.48.1 3.244 1.679 3.938 1.579.697 3.389.062 4.04-1.418.653-1.48-.1-3.244-1.679-3.939zm-3.239 7.35c-1.361-.599-2.92-.053-3.483 1.223-.562 1.276.086 2.795 1.447 3.396 1.363.599 2.92.051 3.482-1.224.564-1.275-.087-2.796-1.446-3.395zm-3.26 7.394c-1.114-.49-2.389-.043-2.848 1.002-.461 1.042.07 2.287 1.184 2.777 1.114.49 2.388.042 2.847-1.002.461-1.041-.07-2.286-1.183-2.777zm4.587 4.275c-.46 1.044.069 2.287 1.183 2.777 1.113.49 2.389.042 2.849-1.001.459-1.044-.071-2.286-1.184-2.777-1.114-.492-2.39-.043-2.848 1.001z" fill="#000"/><path fill-rule="evenodd" clip-rule="evenodd" d="M522.275 329.305c8.026 0 15.705 3.826 20.538 10.234 4.834 6.408 6.404 14.84 4.198 22.56l-47.668 166.843H361.531l48.723-170.531c4.895-17.136 20.764-29.106 38.589-29.106h73.432zM359.389 528.942h-28.726l34.391-120.4.597-2.058 13.728-48.068c4.898-17.144 20.765-29.111 38.59-29.111h17.946c-13.109 4.261-23.721 14.821-27.641 28.542l-48.885 171.095zm-30.852-.052h-1.005c-3.132 0-6.176-1.354-8.056-3.859l-.04-.051a12.09 12.09 0 0 1-1.852-10.733c1.039-3.417 11.803-38.714 13.254-43.478l7.686-18.822.341-.822a1.031 1.031 0 0 0-.556-1.349 1.038 1.038 0 0 0-1.348.566l-4.293 10.502c-23.183-2.943-32.436-11.952-33.804-13.419l11.66-29.014c4.415-10.96 13.469-19.121 24.831-22.393l12.499-3.589c.072-.004.146-.008.211-.033l21.207-6.102.007-.019.004-.002-.011.021-40.735 142.596zm-29.697-10.239h-4.383c-2.999-.213-7.795-1.198-10.874-5.134-1.256-1.617-10.33-13.204-20.231-25.862-12.471-15.94-26.263-33.577-27.393-35.049-.7-.895-.865-1.123-.906-1.173-.01-.011-.022-.021-.032-.041a2.901 2.901 0 0 1-.473-.864l-.06-.196c-.33-1.265.246-2.666 1.378-3.323.299-.165.617-.289.957-.35a2.928 2.928 0 0 1 2.798 1.069l1.236 1.585c.338.443.688.884 1.028 1.318.35.463.712.915 1.071 1.367l.007.006 10.002 12.718a1.031 1.031 0 1 0 1.617-1.274l-9.942-12.64-.068-.146a3.084 3.084 0 0 1-.123-.402 2.88 2.88 0 0 1 .009-1.42c.32-1.266 1.502-2.202 2.81-2.223h.041c.874 0 1.75.422 2.285 1.111l2.376 3.036 1.41 1.812c.011.01.021.03.031.041l.031.031c.032.033.073.061.107.093l9.424 11.981a1.026 1.026 0 0 0 1.445.173c.447-.353.524-.999.173-1.447l-9.739-12.382c-.051-.085-.105-.17-.144-.26a2.901 2.901 0 0 1-.267-1.287 2.978 2.978 0 0 1 2.079-2.768c1.131-.35 2.427.052 3.148.977l2.47 3.181 1.368 1.749a.977.977 0 0 0 .27.226l9.312 11.838a1.025 1.025 0 0 0 1.444.173c.448-.353.524-1 .173-1.447l-9.88-12.56a2.571 2.571 0 0 1-.227-.607 2.974 2.974 0 0 1 .453-2.409 2.95 2.95 0 0 1 2.777-1.234c.32.051.629.144.917.288.381.183.719.462.998.802l2.582 3.314 1.626 2.09 7.482 9.58.071.103a11.038 11.038 0 0 1 2.306 7.522l-.289 4.415-.432 6.565a.965.965 0 0 0 .134.555c.124.247.371.443.669.515a.781.781 0 0 0 .226.031c.413 0 .793-.257.958-.649l.483-1.215 12.465-31.038c2.855 2.774 12.52 10.485 33.84 13.298l-18.366 44.96c-3.792 9.282-11.456 10.703-14.658 10.877zm-187.181 10.291l-77.704-105.87v-12.42l80.461 109.635c.196.268.504.422.835.422h167.573l6.301 8.233H111.659zm153.186-36.017c.216.278.431.556.648.833v3.283H222.92l-39.218-43.849v-13.768l7.718 10.516 1.524 2.08 29.72 40.483a.991.991 0 0 0 .822.422h41.359zm-32.427-42.428c.022.123.053.237.083.36.164.607.442 1.193.834 1.719.019.02.03.051.051.072l.021-.021c.175.278.432.606.731.998l5.298 6.812c3.922 5.032 11.032 14.129 23.794 30.43h-39.219l-28.494-38.817-1.524-2.078-9.262-12.617h115.934l-5.649 13.995-.164.402v.01l-.66 1.646-4.836 11.989v.01a1.847 1.847 0 0 1-1.328.896 1.82 1.82 0 0 1-1.697-.68l-3.272-4.167-.011-.011-6.462-8.283-1.625-2.078-3.614-4.642a5.058 5.058 0 0 0-3.251-1.842 5.049 5.049 0 0 0-4.735 2.089 4.968 4.968 0 0 0-.719 1.503l-1.348-1.729c-1.255-1.616-3.427-2.285-5.383-1.677-1.625.493-2.87 1.821-3.333 3.416l-1.359-1.739a4.988 4.988 0 0 0-3.91-1.904h-.082a5.023 5.023 0 0 0-4.703 3.54c-.01-.01-.02-.031-.042-.052l-1.235-1.584a5.09 5.09 0 0 0-2.993-1.821 4.946 4.946 0 0 0-1.791 0 5.054 5.054 0 0 0-1.625.585c-1.854 1.071-2.8 3.201-2.42 5.27zM91.551 408.542l3.08 12.306-.003.001c-3.097.988-5.104 2.367-5.104 4.157 0 .268.051.536.134.793l6.822 34.124c-1.143.895-1.81 1.955-1.81 3.159 0 4.682 10.074 7.203 19.551 7.203 9.478 0 19.553-2.521 19.553-7.203 0-2.594-3.098-4.528-7.472-5.732l6.308-31.551c.083-.257.134-.525.134-.793 0-1.79-2.006-3.169-5.103-4.157l3.076-12.307h49.364v9.261c0 .567.463 1.029 1.029 1.029h82.324c.567 0 1.03-.462 1.03-1.029v-9.261h49.279a40.575 40.575 0 0 0-5.134 9.097l-7.12 17.658H182.673a1.13 1.13 0 0 0-.256.041 1.094 1.094 0 0 0-.195.072c-.34.155-.578.515-.578.917v13.48l-7.245-.103h-.019c-.401 0-.762.236-.936.607-.166.371-.103.804.174 1.111l46.019 51.454c.197.216.474.34.762.34h49.035l11.814 15.435H115.776L34.952 408.542h56.6zm-31.078-25.961c1.767-27.183 5.976-43.786 7.11-47.87a42.117 42.117 0 0 0 4.148-.643 39.333 39.333 0 0 0 2.333-.567l13.01 72.983H59.69c.02-8.119.278-16.155.783-23.903zm-20.067-57.063l-.937-.68c-16.02-11.494-21.013-33.228-11.617-50.568 20.417-37.591 33.548-61.835 39-72.054 8.069-15.097 25.852-22.578 42.276-17.793l28.607 8.325a1.025 1.025 0 0 0 1.225-.576l9.061-20.528a3.145 3.145 0 0 0 1.877 2.455c1.579.695 3.387.061 4.039-1.42.651-1.479-.1-3.243-1.679-3.939-1.066-.468-2.225-.322-3.074.27l1.65-3.738a3.55 3.55 0 0 0 1.977 2.212c1.76.774 3.776.067 4.503-1.582.727-1.651-.112-3.616-1.873-4.391a3.548 3.548 0 0 0-2.962.032l1.233-2.79a3.936 3.936 0 0 0 2.047 2.042c1.932.851 4.144.073 4.942-1.737.796-1.81-.123-3.968-2.055-4.82a3.95 3.95 0 0 0-2.882-.132l.862-1.958a4.238 4.238 0 0 0 2.08 1.949c1.895.833 4.024.216 5.044-1.359v-.01c.018-.028.03-.061.049-.091-.546 1.843.424 3.892 2.346 4.739 1.941.854 4.129.165 5.107-1.516-.582 1.857.388 3.936 2.328 4.791 1.942.855 4.132.166 5.108-1.518-.581 1.857.386 3.938 2.329 4.795 1.941.853 4.13.166 5.108-1.517-.581 1.857.388 3.937 2.329 4.792 1.942.856 4.131.166 5.108-1.519-.583 1.859.386 3.939 2.329 4.794 1.924.848 4.093.178 5.082-1.472-.009.031-.026.063-.034.094 0 0-.01.011-.01.021-.472 1.811.515 3.797 2.398 4.631.83.367 1.703.452 2.512.301l-.696 1.575a3.938 3.938 0 0 0-1.878-1.733c-1.933-.852-4.145-.074-4.942 1.736-.797 1.81.122 3.967 2.054 4.819a3.944 3.944 0 0 0 2.542.218l-1.02 2.31a3.6 3.6 0 0 0-1.837-1.812c-1.76-.775-3.776-.067-4.503 1.583-.727 1.65.11 3.615 1.871 4.39a3.596 3.596 0 0 0 2.573.135l-1.36 3.081a3.176 3.176 0 0 0-1.766-1.959c-1.579-.696-3.388-.06-4.041 1.42-.652 1.479.101 3.243 1.681 3.939a3.185 3.185 0 0 0 2.634-.018l-1.879 4.256c-.071-.936-.666-1.825-1.631-2.25-1.362-.6-2.921-.053-3.482 1.223-.562 1.276.086 2.796 1.447 3.396.962.424 2.021.264 2.759-.312l-3.12 7.064c-.112.278-.112.587.01.854.124.268.362.474.65.556l43.731 12.729h-76.54l-1.851-6.483c-.813-2.85-3.446-4.836-6.451-4.836-2.08 0-4.065.987-5.32 2.655a7.228 7.228 0 0 0-.546.833 6.707 6.707 0 0 0-5.897-3.488 6.686 6.686 0 0 0-5.32 2.655c-.195.267-.38.545-.534.833a6.722 6.722 0 0 0-5.898-3.488 6.675 6.675 0 0 0-5.864 3.498 6.701 6.701 0 0 0-5.897-3.498 6.673 6.673 0 0 0-5.321 2.655c-.122.151-3.543 5.293-5.79 8.664H77.175c-.022 0-.041.013-.063.015a.978.978 0 0 0-.313.075c-.039.015-.076.023-.11.043a.975.975 0 0 0-.256.212c-.024.026-.06.038-.081.067-.005.005-.005.013-.01.019-.002.004-.009.008-.012.012l-7.203 10.29a1.036 1.036 0 0 0-.143.865l8.866 31.034c-.012.015-.028.024-.039.041l-20.03 31.901a1.03 1.03 0 0 0 1.742 1.095l16.848-26.83c.905 6.091 4.394 29.501 6.607 44.342a16.185 16.185 0 0 1-8.94 16.934c-.899.257-1.807.491-2.728.684-10.733 2.233-21.992-.133-30.904-6.534zM166.28 146.986l.012-.012c.076 1.132.618 2.216 1.519 3.011-1.479-.107-2.886.566-3.637 1.802.009-.026.02-.051.028-.077v-.011c.36-1.348-.093-2.789-1.112-3.787a4.504 4.504 0 0 0 3.19-.926zm7.448 3.25c.073 1.139.617 2.226 1.52 3.025-1.503-.11-2.931.589-3.674 1.863.441-1.407-.01-2.933-1.104-3.967 1.2.128 2.368-.206 3.258-.921zm7.436 3.278c.074 1.135.616 2.225 1.519 3.022-1.502-.109-2.934.591-3.673 1.867.44-1.407-.009-2.936-1.104-3.971 1.198.128 2.369-.206 3.258-.918zm7.436 3.274c.073 1.138.617 2.227 1.522 3.026-1.503-.111-2.933.586-3.675 1.862.44-1.407-.01-2.933-1.104-3.968 1.198.129 2.369-.206 3.257-.92zm7.437 3.278c.074 1.137.616 2.224 1.521 3.024-1.504-.11-2.936.59-3.675 1.865.442-1.407-.008-2.936-1.104-3.971 1.2.129 2.368-.206 3.258-.918zm7.422 3.284v.019a4.475 4.475 0 0 0 1.493 2.983c-1.451-.092-2.84.567-3.592 1.771-.006.012-.01.024-.017.033.402-1.387-.051-2.879-1.127-3.897 1.192.128 2.357-.201 3.243-.909zm84.929 59.961l4.596 16.077-1.714-.148c-2.185-.182-4.396-.369-6.515-.552l-1.81-6.394a1.025 1.025 0 0 0-.988-.75H162.035l-2.351-8.233h128.705zm15.538 19.12c2.028.217 3.695 1.76 4.045 3.767a4.675 4.675 0 0 1-1.163 3.972 4.61 4.61 0 0 1-2.028 1.265 4.079 4.079 0 0 1-.997.196 3.85 3.85 0 0 1-.845 0h-.009c-.073 0-.134 0-.196.01a1.02 1.02 0 0 0-.936.906c-.053.566.36 1.07.925 1.132l.382.041 1.06.103 1.059.113.752.072a4.631 4.631 0 0 1 4.054 3.777 4.665 4.665 0 0 1-1.173 3.972 4.619 4.619 0 0 1-2.007 1.276 4.114 4.114 0 0 1-1.008.185c-.226.02-.442.02-.669.01a.89.89 0 0 0-.37.062 1.021 1.021 0 0 0-.721.875c-.041.556.36 1.05.916 1.111l.165.02 1.06.103 1.059.114.752.072a4.632 4.632 0 0 1 4.054 3.766v.031a4.648 4.648 0 0 1-1.173 3.942 4.757 4.757 0 0 1-2.017 1.276 4.644 4.644 0 0 1-1.008.185 3.832 3.832 0 0 1-.843 0h-.011a.433.433 0 0 0-.196.01 1.003 1.003 0 0 0-.926.905c-.063.567.35 1.071.916 1.133h.01l.371.041 1.07.103 1.059.113.742.072a4.61 4.61 0 0 1 4.053 3.777c0 .01.011.02.011.031.123.73.062 1.481-.154 2.181a4.61 4.61 0 0 1-.422.947 4.632 4.632 0 0 1-.597.813l-.041.041a4.645 4.645 0 0 1-2.615 1.379 4.258 4.258 0 0 1-1.089.041c-.041 0-.093 0-.134-.01-.238-.021-13.501-1.214-15.6-1.389-5.136-.433-9.973-.844-12.812-1.133-2.027-.206-3.704-1.759-4.066-3.817a4.602 4.602 0 0 1 .083-1.945c.104-.443.289-.854.514-1.245a4.98 4.98 0 0 1 .566-.752c.164-.185.351-.35.545-.494a4.633 4.633 0 0 1 2.831-.977c.155 0 .307.01.463.031.019 0 .019-.01.041-.01l21.363 1.811h.093c.526 0 .978-.402 1.019-.948a1.034 1.034 0 0 0-.937-1.11l-21.652-1.822-2.912-.298c-2.036-.217-3.703-1.77-4.075-3.818a4.618 4.618 0 0 1 .082-1.945 4.41 4.41 0 0 1 .525-1.256c.063-.102.124-.205.197-.298.112-.154.225-.298.358-.442a4 4 0 0 1 .537-.494 4.552 4.552 0 0 1 3.118-.967h.011l21.289 1.79h.094c.525 0 .976-.401 1.017-.937a1.018 1.018 0 0 0-.936-1.111l-21.301-1.79-2.974-.309a4.63 4.63 0 0 1-4.064-3.818 4.6 4.6 0 0 1 .071-1.945 4.421 4.421 0 0 1 .722-1.554c.112-.155.224-.298.358-.442.175-.185.362-.35.556-.494a4.653 4.653 0 0 1 3.252-.958v.011l21.159 1.77h.082a1.02 1.02 0 0 0 1.017-.947 1.025 1.025 0 0 0-.936-1.112l-21.043-1.759h-.022l-3.21-.34c-2.026-.205-3.704-1.76-4.064-3.807a4.577 4.577 0 0 1 .081-1.936 4.527 4.527 0 0 1 1.544-2.437 4.639 4.639 0 0 1 3.375-1.019c3.922.401 9.881.906 15.643 1.398 5.135.433 9.992.845 12.831 1.133zm10.271 71.252l.02.072c-2.02 3.914-3.536 8.344-4.464 13.103l-10.097-35.606 2.86.306c3.284.35 6 2.594 6.969 5.743l.041.154c.021.077.063.14.1.206l1.171 4.103c-.488 3.893.658 7.919 3.4 11.919zm-.34-14.977c2.525-5.536 10.078-7.681 19.033-7.681 8.914 0 19.209 2.124 27.282 5.127 8.881 3.31 14.782 8.601 17.545 15.721 1.146 2.945 1.711 6.05 1.848 9.2.355 8.18-6.894 14.603-15.154 13.568-9.684-1.213-19.367-6.388-19.515-6.47-.025-.012-.05-.012-.075-.024-.901-.522-1.876-.819-2.904-.819-4.164 0-7.513 4.66-8.181 10.964-6.53-4.681-5.394-13.437-5.334-13.886a1.03 1.03 0 0 0-.511-1.032c-.195-.112-19.997-11.533-14.034-24.668zM240.24 406.484l8.397-21.611h76.541c.34 0 .649-.164.844-.441l4.093-5.874a20.27 20.27 0 0 0 2.266.141h10.908l3.246 11.968-11.745 3.376c-7.692 2.214-14.369 6.561-19.404 12.441H240.24zm-58.1 1.029l4.228-10.703 8.768-1.718-4.692 12.05a.896.896 0 0 0-.062.33c0 .019-.01.03-.01.041 0 .01.01.02.01.031 0 .123.021.247.072.35 0 .02.011.031.02.051.022.052.041.103.072.144.031.052.072.083.102.124a.07.07 0 0 1 .041.041c.083.082.187.144.29.196.019 0 .041.01.06.02.115.041.238.072.362.072h71.005v8.232H182.14v-9.261zm64.242-22.506l-8.344 21.477h-45.135l4.609-11.866 48.87-9.611zM109.219 228.076l.991 3.468H90.553c-.32 0-.629.154-.823.411a1 1 0 0 0-.165.896l37.046 130.69c.124.443.525.751.988.751h185.65c1.417 3.278 3.151 6.035 5.177 8.232H121.168L78.544 223.311h24.358a6.59 6.59 0 0 1 6.317 4.765zm159.676 13.758H164.972l-2.35-8.232h118.554l1.386 4.895c-2.611-.23-5-.451-6.893-.645a6.695 6.695 0 0 0-5.567 2.099 6.666 6.666 0 0 0-1.207 1.883zm-3.084 6.947a6.693 6.693 0 0 0 2.875 4.373H165.868a6.677 6.677 0 0 0 .794-5.403l-1.102-3.859h101.273a6.789 6.789 0 0 0-1.022 4.889zm-152.071-4.889l2.646 9.262h-8.751l-2.634-9.262h8.739zm-10.098-2.058c-.329 0-.628.155-.823.412a1.034 1.034 0 0 0-.175.895l3.221 11.32 30.665 107.773h-8.149l-36.47-128.632H110.8l2.352 8.232h-9.51zm186.064 120.4h-94.602l-2.345-8.232h94.602l2.345 8.232zm19.126-28.273l-5.178 7.774-14.687-51.629 8.487.91 11.567 40.797a55.635 55.635 0 0 0-.189 2.148zm.544 15.069c.611 4.978 1.644 9.392 3.054 13.204h-2.944l-4.663-16.39 4.553 3.186zm-4.398-5.586l3.739-5.613c.008 2.969.132 5.802.372 8.485l-4.111-2.872zm-35.051-71.51a6.693 6.693 0 0 0 4.466 5.156 5.823 5.823 0 0 0-.741.679 6.704 6.704 0 0 0-1.676 5.742 6.717 6.717 0 0 0 5.885 5.465c1.235.123 2.718.257 4.354.412.01-.011.031 0 .041 0l4.505.482 20.593 72.364h-15.519l-2.715-9.54a1.024 1.024 0 0 0-.988-.75h-96.731c-.321 0-.629.155-.824.411a1.003 1.003 0 0 0-.164.896l2.551 8.983h-54.303l-30.439-107.022h9.06a6.71 6.71 0 0 0 5.645 3.087 6.687 6.687 0 0 0 5.32-2.655 2.52 2.52 0 0 0 .257-.422c.01 0 .01 0 .01-.01h.527a6.71 6.71 0 0 0 5.638 3.087 6.66 6.66 0 0 0 5.321-2.655 4.45 4.45 0 0 0 .3-.432h.496a6.707 6.707 0 0 0 5.644 3.087c2.08 0 4.066-.988 5.321-2.655.099-.138.205-.284.295-.432h.498a6.697 6.697 0 0 0 5.65 3.087 6.69 6.69 0 0 0 5.32-2.655c.11-.141.2-.282.301-.432h105.623c-1.066 1.458-1.902 3.317-1.579 5.146a6.697 6.697 0 0 0 4.456 5.155 7.609 7.609 0 0 0-.731.679 6.732 6.732 0 0 0-1.667 5.742zm-147.082-54.077a4.6 4.6 0 0 1 .762-4.034c.936-1.244 2.468-1.944 4.094-1.821 1.957.155 3.561 1.636 4.107 3.53l.494 1.728.267.947c.154.536.721.854 1.246.709.545-.143.873-.688.74-1.234a4.561 4.561 0 0 1 .803-3.859c.936-1.244 2.469-1.944 4.095-1.821 1.956.155 3.56 1.636 4.107 3.53l.143.494.577 2.027.102.371c.134.462.546.749.988.749a1.036 1.036 0 0 0 .999-1.295v-.021a4.4 4.4 0 0 1-.175-1.265c0-.257.02-.515.071-.772a4.493 4.493 0 0 1 .854-1.997 4.654 4.654 0 0 1 3.716-1.831 4.606 4.606 0 0 1 4.425 3.344l9.426 32.982c.206.72.227 1.47.071 2.192a4.654 4.654 0 0 1-.823 1.842 4.606 4.606 0 0 1-1.615 1.337 4.744 4.744 0 0 1-2.489.484c-1.956-.165-3.563-1.646-4.096-3.54l-.824-2.882c-.01-.01-.01-.01-.01-.021l-7.481-25.736a1.026 1.026 0 0 0-1.278-.7 1.024 1.024 0 0 0-.698 1.277l7.491 25.777c.186.68.217 1.379.083 2.059a4.588 4.588 0 0 1-.844 1.945 4.624 4.624 0 0 1-1.617 1.347h-.009a4.784 4.784 0 0 1-2.47.474c-1.965-.155-3.572-1.646-4.105-3.53l-.712-2.5c-.009-.011 0-.011-.009-.021l-7.594-26.128a1.014 1.014 0 0 0-1.267-.7 1.025 1.025 0 0 0-.699 1.277l7.522 25.911.041.988c.011.267 0 .525-.03.792-.063.555-.206 1.101-.485 1.595a4.452 4.452 0 0 1-1.935 1.822 4.617 4.617 0 0 1-2.448.494c-1.976-.144-3.601-1.636-4.148-3.54l-.689-2.429c-.009-.031 0-.061-.009-.082l-7.595-26.128a1.02 1.02 0 0 0-1.277-.7 1.03 1.03 0 0 0-.699 1.277l6.977 23.997c.299 1.029.443 2.1.38 3.169-.01.34-.041.67-.092.999-.113.658-.288 1.265-.545 1.616a4.397 4.397 0 0 1-1.739 1.388 4.723 4.723 0 0 1-2.367.433c-1.956-.165-3.56-1.646-4.097-3.54l-8.191-28.629c0-.01-.009-.03-.02-.041a1.006 1.006 0 0 0-.968-.71h-4.393c2.212-3.324 4.826-7.244 4.948-7.43a4.693 4.693 0 0 1 4.097-1.821c1.966.155 3.572 1.636 4.116 3.53l.824 2.892c.041.164.134.319.236.431.269.268.66.381 1.04.278a.973.973 0 0 0 .648-.565.996.996 0 0 0 .052-.711zm-8.881 164.958l-42.87-150.056 5.686-8.122 42.628 149.195c.124.443.524.751.987.751h200.224c2.163 1.754 4.59 2.958 7.259 3.592l-3.236 4.64H113.964zm11.701 37.479l-.505 2.017-1.389 5.536c-.02.062-.02.124-.02.185a50.873 50.873 0 0 1-4.241.639l1.781-7.101.504-2.017 2.748-11.011.401-1.616.113-.442.545-2.182c.011-.02.011-.041.022-.061l.349-1.431a1.947 1.947 0 0 1 1.884-1.472c.616 0 1.182.278 1.563.762s.514 1.101.361 1.698l-.67 2.686-.113.442-.402 1.616-2.931 11.752zm.308 7.203l1.163-4.641c2.274.731 3.477 1.534 3.54 2.109l-.053.268c-.298.659-1.883 1.513-4.65 2.264zm-14.839 3.684c.226 0 .452 0 .679-.01h.051c.052.01.102.01.154 0a.07.07 0 0 0 .063 0c6.987-.073 14.158-1.019 17.945-2.953l-5.73 28.639-.793 3.961c-.01.072-.02.134-.02.206 0 1.719-4.704 4.117-12.349 4.117-7.645 0-12.349-2.398-12.349-4.117 0-.072-.01-.134-.021-.206l-.41-2.058-6.114-30.542c3.963 2.017 11.617 2.963 18.894 2.963zm-16-8.326l1.161 4.642c-2.77-.751-4.354-1.605-4.652-2.264l-.05-.268c.061-.575 1.265-1.378 3.54-2.109v-.001zm5.344-3.303l-.006.001.505 2.017.005-.001 1.775 7.102a48.504 48.504 0 0 1-4.21-.646l-6.06-24.227a1.935 1.935 0 0 1 .36-1.698c.38-.484.947-.762 1.565-.762.884 0 1.667.608 1.883 1.472l.915 3.674.094.364.097.39.324 1.304h.002l2.751 11.01zm2.562 1.759c2.355-.267 5.06-.421 8.094-.421.689 0 1.358.01 2.017.031l-2.049 8.202c-2.242 0-4.3-.093-6.174-.237v-.009l-1.888-7.566zm10.626-2.438a69.005 69.005 0 0 0-2.532-.041c-2.891 0-5.843.153-8.6.462l-2.686-10.752h16.399l-2.581 10.331zm3.704 10.013a70.5 70.5 0 0 1-4.136.206l2.027-8.099.504-2.027 2.603-10.424.402-1.616.113-.442.916-3.674a1.947 1.947 0 0 1 1.883-1.472c.616 0 1.182.278 1.563.762.372.474.506 1.07.372 1.657l-.681 2.727-.113.442-.401 1.616-2.685 10.753-.504 2.017-1.893 7.565.03.009zm252.716-61.548c.793 2.975 1.565 5.825 2.233 8.305l-2.366 8.294-21.439 6.161-3.444-12.695c-.002-.008-.006-.012-.008-.018l-1.819-7.176a1.03 1.03 0 0 0-.993-.776h-.005a1.03 1.03 0 0 0-.995.767c-1.343 5.088-5.244 6.275-5.899 6.441h-2.97c-13.532 0-21.609-14.622-21.609-39.104 0-8.141 1.793-15.702 4.84-21.966.417.513.852 1.026 1.324 1.539 3.622 3.952 7.728 6.669 9.22 7.594-.177 2.552-.201 11.508 7.267 15.987a1.024 1.024 0 0 0 2.046-.067c0-6.136 2.827-11.319 6.175-11.319.681 0 1.339.225 1.96.62.457.363.884.74 1.277 1.133 1.746 2.025 2.937 5.591 2.937 9.566 0 2.474-.476 4.836-1.293 6.783-.132.299-.265.587-.396.857-.544 1.071-1.2 1.986-1.96 2.651-.071.066-1.735 1.612-4.997-.824a1.028 1.028 0 1 0-1.232 1.648c1.841 1.375 3.388 1.801 4.597 1.801a4.619 4.619 0 0 0 2.357-.623c3.749 3.135 9.289 5.715 17.351 5.715h.462a10.985 10.985 0 0 0 5.195-1.352c.574 3.38 1.298 6.74 2.184 10.058zm46.699-44.795c-8.83-7.295-16.609-18.698-11.948-28.844 2.603-5.67 8.593-8.747 14.932-7.656 6.504 1.122 10.043.617 11.146-1.585 1.543-3.066-3.016-7.584-3.943-8.459-.032-.031-.062-.062-.091-.082-17.043-12.658-19.244-27.98-15.354-34.814 2.222-3.91 6.184-5.031 10.887-3.076 2.808 1.162 5.257 2.357 7.42 3.406 4.866 2.367 7.542 3.673 9.107 2.223 1.749-1.626.802-5.65-4.384-18.75-3.735-9.405-3.602-17.422.391-23.812 7.264-11.659 25.428-14.972 31.263-15.755-33.911 59.412-30.225 126.103-28.765 141.907h-16.474c-1.807-2.669-3.987-4.537-4.187-4.703zm185.147-135.609a1.024 1.024 0 0 0-.616-.607 1.053 1.053 0 0 0-.864.073c-24.64 14.041-45.302 31.476-62.07 48.82-1.333 1.381.336 3.571 2.015 2.643 12.397-6.848 29.882-13.533 50.895-13.533.485 0 .969 0 1.45.011.578.01 1.03.473 1.021 1.039a1.031 1.031 0 0 1-1.03 1.019h-.01c-.484-.01-.958-.01-1.431-.01-26.033 0-46.526 10.458-58.412 18.473-6.002 4.049-11.317 9.047-15.818 14.718a346.443 346.443 0 0 0-13.415 18.076 351.995 351.995 0 0 0-13.177 20.486c-.962 1.617 1.054 3.344 2.51 2.153 15.071-12.322 42.012-28.597 76.197-24.934.568.061.969.576.907 1.132-.062.565-.556.988-1.133.915-32.134-3.443-57.758 11.13-72.826 22.984a72.048 72.048 0 0 0-21.013 26.765l-.041.089H453.07c2.386-2.305 3.53-5.834 3.344-10.383-.186-4.466-1.574-8.325-1.637-8.5-5.175-13.872-6.503-31.685 5.32-40.061 6.649-4.714 15.436-4.281 21.867 1.08a59.918 59.918 0 0 0 3.129 2.449c4.661 3.376 7.853 4.302 9.932 2.934 3.59-2.374 1.201-10.714.933-11.626l-.038-.103c-10.887-25.173-3.408-43.759 5.381-48.914 5.125-3.005 10.395-1.677 14.47 3.643 2.366 3.097 4.331 5.999 6.059 8.562 3.819 5.649 5.928 8.767 8.388 8.191 2.798-.638 4.363-5.886 6.936-23.401 2.11-14.326 7.821-24.266 16.99-29.524 16.525-9.487 39.011-.638 39.238-.545a1.029 1.029 0 0 0 .762-1.914c-.948-.381-23.618-9.313-41.02.669-9.744 5.588-15.806 16.022-18.008 31.005-.937 6.349-3.119 21.199-5.351 21.703-1.122.278-3.715-3.612-6.235-7.337-1.74-2.583-3.716-5.506-6.134-8.664-4.693-6.144-11.104-7.699-17.135-4.158-5.484 3.21-9.528 10.003-11.093 18.615-1.256 6.957-1.44 18.297 4.836 32.827.753 2.542 1.699 8.058-.112 9.252-.627.41-2.561.802-7.831-3.067 1.009-2.183 1.442-4.137 1.604-5.68.556-5.382-1.686-10.631-5.711-13.347-3.065-2.068-6.615-2.305-9.754-.649-6.104 3.221-10.033 2.728-11.227.803-1.688-2.706.946-8.788 9.138-14.725 9.384-6.803 14.273-14.635 14.53-23.299.206-6.719-2.48-14.016-7.759-21.095-3.961-5.3-7.934-8.583-8.098-8.727a1.06 1.06 0 0 0-.834-.216.428.428 0 0 0-.072.031c-1.163.093-25.469 2.171-34.681 16.918-4.351 6.987-4.546 15.621-.555 25.675 1.502 3.807 6.092 15.372 4.898 16.485-.525.484-4.157-1.275-6.811-2.572-2.181-1.06-4.662-2.264-7.523-3.458-5.598-2.326-10.763-.803-13.47 3.962-2.491 4.374-2.573 10.6-.248 17.082 1.874 5.207 6.185 12.977 16.116 20.365 1.79 1.699 4.096 4.755 3.468 6.01-.216.442-1.503 1.76-8.953.473-7.255-1.255-14.159 2.295-17.154 8.83-5.145 11.206 3.087 23.503 12.503 31.283.032.033 1.48 1.277 2.924 3.118h-.423c-18.74 0-35.421 12.585-40.566 30.605l-3.993 13.974a891.429 891.429 0 0 1-1.337-5.012 107.056 107.056 0 0 1-2.296-10.812 10.962 10.962 0 0 0 2.592-3.193 93.225 93.225 0 0 0 3.763-8.163l.182-.374c.024-.052.045-.105.062-.16l.086-.299c3.76-9.614 6.656-22.147 2.567-32.866-2.963-7.749-9.21-13.48-18.575-17.031-16.166-6.123-42.746-9.2-48.479 3.663-.05.113-.092.228-.139.341l-.884-3.103 4.553-9.926a.482.482 0 0 0 .041-.133.118.118 0 0 0 .032-.083 6.53 6.53 0 0 0 .585-4.095v-.042a6.712 6.712 0 0 0-4.485-5.125 5.86 5.86 0 0 0 .739-.678 6.747 6.747 0 0 0 1.699-5.732c-.011-.021-.011-.031-.011-.041-.442-2.419-2.203-4.374-4.476-5.126.256-.205.504-.432.74-.678a6.762 6.762 0 0 0 1.688-5.733c-.431-2.438-2.203-4.414-4.486-5.165.266-.206.513-.433.74-.69a6.719 6.719 0 0 0 1.688-5.732c-.513-2.901-2.922-5.144-5.865-5.453-2.115-.215-5.342-.497-8.966-.808l-5.019-17.572a1.026 1.026 0 0 0-.987-.751H243l-49.388-14.376 23.083-52.307c1.481-3.416 2.305-6.956 2.449-10.528.225-5.669-1.286-11.463-4.261-16.319a28.715 28.715 0 0 0-5.928-6.937 29.132 29.132 0 0 0-8.118-4.868 28.823 28.823 0 0 0-9.509-2.027 28.903 28.903 0 0 0-10.661 1.586 29.307 29.307 0 0 0-9.869 5.803c-3.024 2.716-5.432 6.041-7.162 9.89l-26.2 59.345-27.733-8.068c-17.36-5.052-36.14 2.851-44.66 18.791-5.454 10.217-18.586 34.463-39.003 72.055-9.888 18.244-4.63 41.121 12.226 53.222l.946.68a41.434 41.434 0 0 0 26.192 7.685c-1.378 5.149-5.297 21.592-6.985 47.57a387.342 387.342 0 0 0-.788 24.034H32.904a1.1 1.1 0 0 0-.668.257v.01c-.04.031-.072.072-.104.103v.01a.992.992 0 0 0-.235.627v15.921c0 .216.072.432.194.607L110.3 530.578c.197.267.505.422.835.422H510.41a1.029 1.029 0 0 0 .616-1.852l-7.907-5.931 45.873-160.554c2.38-8.336.686-17.443-4.535-24.365-3.629-4.81-8.742-8.269-14.436-9.933.588-2.087-.233-4.447-2.281-5.564-12.937-7.009-32.735.134-42.367 4.445h-4.827c3.324-1.677 10.816-5.167 19.376-7.399 10.477-2.737 19.328-2.737 26.139-.071 4.558 1.78 8.748-3.438 5.804-7.348-.762-1.019-1.719-1.956-2.85-2.799-5.588-4.157-5.917-6.308-5.608-7.224.75-2.275 6.678-3.159 10.281-3.18 23.544 3.221 33.454-5.125 37.261-10.383 4.024-5.546 4.889-12.689 2.201-18.204-2.026-4.168-5.731-6.658-10.166-6.823-7.944-.299-13.161-2.881-13.285-6.586-.133-4.219 6.78-9.447 19.86-10.805 14.706-1.524 25.099-7.049 30.894-16.434 10.856-17.545 1.861-42.027 1.48-43.056z" fill="#000"/><path fill-rule="evenodd" clip-rule="evenodd" d="M364.283 310.845c0 .264.101.527.302.728a1.027 1.027 0 0 0 1.455 0 4.122 4.122 0 0 1 5.821 0 1.03 1.03 0 1 0 1.455-1.455 6.174 6.174 0 0 0-5.593-1.683 6.171 6.171 0 0 0-1.683-5.594 1.03 1.03 0 0 0-1.455 1.456 4.12 4.12 0 0 1 0 5.821 1.027 1.027 0 0 0-.302.727zm-48.366 20.514c-1.518 0-2.059 2.126-2.059 4.116 0 1.99.541 4.116 2.059 4.116 1.518 0 2.058-2.126 2.058-4.116 0-1.99-.54-4.116-2.058-4.116z" fill="#000"/></svg>